# 3ds Max Wavefront OBJ Exporter v0.97b - (c)2007 guruware
# File Created: 11.03.2014 01:09:24

mtllib game_cube_corners.mtl

#
# object Sphere058
#

v  0.994917 0.944967 0.944043
v  0.983219 0.977107 0.944043
v  0.983219 0.976618 0.949624
v  0.983219 0.975168 0.955035
v  0.983219 0.972801 0.960112
v  0.983219 0.969587 0.964701
v  0.983219 0.965626 0.968663
v  0.983219 0.961037 0.971876
v  0.983219 0.955960 0.974244
v  0.983219 0.950548 0.975694
v  0.983219 0.944967 0.976182
v  0.983219 0.944967 0.944043
v  0.953600 0.994208 0.944043
v  0.953600 0.993460 0.952593
v  0.953600 0.991238 0.960884
v  0.953600 0.987611 0.968663
v  0.953600 0.982688 0.975694
v  0.953600 0.976618 0.981763
v  0.953600 0.969587 0.986686
v  0.953600 0.961809 0.990314
v  0.953600 0.953518 0.992535
v  0.953600 0.944967 0.993283
v  0.953600 0.944967 0.944043
v  0.944917 0.994967 0.944043
v  0.944917 0.994208 0.952725
v  0.944917 0.991952 0.961144
v  0.944917 0.988269 0.969043
v  0.944917 0.983270 0.976182
v  0.944917 0.977107 0.982345
v  0.944917 0.969967 0.987344
v  0.944917 0.962068 0.991027
v  0.944917 0.953650 0.993283
v  0.944917 0.944967 0.994043
v  0.944917 0.944967 0.944043
# 34 vertices

vn 0.949810 0.221202 0.221202
vn 0.755547 0.652602 0.057095
vn 0.756781 0.643737 0.113508
vn 0.756781 0.614247 0.223568
vn 0.756781 0.566093 0.326834
vn 0.756781 0.500739 0.420170
vn 0.756781 0.420170 0.500739
vn 0.756781 0.326834 0.566093
vn 0.756781 0.223568 0.614247
vn 0.756781 0.113508 0.643737
vn 0.755547 0.057095 0.652602
vn -0.000000 -1.000000 0.000000
vn -0.000000 0.000000 -1.000000
vn 0.296284 0.951465 0.083242
vn 0.297316 0.940274 0.165796
vn 0.297316 0.897199 0.326554
vn 0.297316 0.826863 0.477390
vn 0.297316 0.731403 0.613720
vn 0.297316 0.613720 0.731403
vn 0.297316 0.477389 0.826863
vn 0.297316 0.326554 0.897199
vn 0.297316 0.165796 0.940274
vn 0.296284 0.083242 0.951465
vn 0.086826 0.992433 0.086827
vn 0.087155 0.981060 0.172987
vn 0.087155 0.936117 0.340719
vn 0.087156 0.862730 0.498097
vn 0.087156 0.763129 0.640342
vn 0.087156 0.640342 0.763129
vn 0.087156 0.498097 0.862730
vn 0.087156 0.340719 0.936117
vn 0.087155 0.172987 0.981060
vn 0.086826 0.086827 0.992433
vn -1.000000 0.000000 0.000000
# 34 vertex normals

vt 0.000000 0.157080 0.000000
vt 0.000000 0.122173 0.000000
vt 0.008727 0.122173 0.000000
vt 0.008727 0.157080 0.000000
vt 0.017453 0.122173 0.000000
vt 0.017453 0.157080 0.000000
vt 0.026180 0.122173 0.000000
vt 0.026180 0.157080 0.000000
vt 0.034907 0.122173 0.000000
vt 0.034907 0.157080 0.000000
vt 0.043633 0.122173 0.000000
vt 0.043633 0.157080 0.000000
vt 0.052360 0.122173 0.000000
vt 0.052360 0.157080 0.000000
vt 0.061087 0.122173 0.000000
vt 0.061087 0.157080 0.000000
vt 0.069813 0.122173 0.000000
vt 0.069813 0.157080 0.000000
vt 0.078540 0.122173 0.000000
vt 0.050000 0.050000 -0.000000
vt 0.017861 0.038302 0.000000
vt 0.050000 0.038302 -0.000000
vt 0.000000 0.050000 -0.000000
vt 0.000000 0.038302 -0.000000
vt 0.032139 0.038302 -0.000000
vt 0.000000 0.087266 0.000000
vt 0.008727 0.087266 0.000000
vt 0.017453 0.087266 0.000000
vt 0.026180 0.087266 0.000000
vt 0.034907 0.087266 0.000000
vt 0.043633 0.087266 0.000000
vt 0.052360 0.087266 0.000000
vt 0.061087 0.087266 0.000000
vt 0.069813 0.087266 0.000000
vt 0.078540 0.087266 0.000000
vt 0.000760 0.008682 0.000000
vt 0.050000 0.008682 -0.000000
vt 0.000000 0.008682 -0.000000
vt 0.049240 0.008682 -0.000000
vt 0.000000 0.052360 0.000000
vt 0.008727 0.052360 0.000000
vt 0.017453 0.052360 0.000000
vt 0.026180 0.052360 0.000000
vt 0.034907 0.052360 0.000000
vt 0.043633 0.052360 0.000000
vt 0.052360 0.052360 0.000000
vt 0.061087 0.052360 0.000000
vt 0.069813 0.052360 0.000000
vt 0.078540 0.052360 0.000000
vt 0.000000 0.000000 0.000000
vt 0.050000 0.000000 0.000000
vt 0.000000 0.050000 0.000000
vt 0.049240 0.041318 0.000000
vt 0.050000 0.050000 0.000000
vt 0.046985 0.032899 0.000000
vt 0.043301 0.025000 0.000000
vt 0.038302 0.017861 0.000000
vt 0.032139 0.011698 0.000000
vt 0.025000 0.006699 0.000000
vt 0.017101 0.003015 0.000000
vt 0.008682 0.000760 0.000000
# 61 texture coords

g Sphere058
usemtl wire_153228153
s 1
f 1/1/1 2/2/2 3/3/3 
f 1/4/1 3/3/3 4/5/4 
f 1/6/1 4/5/4 5/7/5 
f 1/8/1 5/7/5 6/9/6 
f 1/10/1 6/9/6 7/11/7 
f 1/12/1 7/11/7 8/13/8 
f 1/14/1 8/13/8 9/15/9 
f 1/16/1 9/15/9 10/17/10 
f 1/18/1 10/17/10 11/19/11 
s 4
f 1/20/12 11/21/12 12/22/12 
s 8
f 1/23/13 12/24/13 2/25/13 
s 1
f 2/2/2 13/26/14 14/27/15 
f 2/2/2 14/27/15 3/3/3 
f 3/3/3 14/27/15 15/28/16 
f 3/3/3 15/28/16 4/5/4 
f 4/5/4 15/28/16 16/29/17 
f 4/5/4 16/29/17 5/7/5 
f 5/7/5 16/29/17 17/30/18 
f 5/7/5 17/30/18 6/9/6 
f 6/9/6 17/30/18 18/31/19 
f 6/9/6 18/31/19 7/11/7 
f 7/11/7 18/31/19 19/32/20 
f 7/11/7 19/32/20 8/13/8 
f 8/13/8 19/32/20 20/33/21 
f 8/13/8 20/33/21 9/15/9 
f 9/15/9 20/33/21 21/34/22 
f 9/15/9 21/34/22 10/17/10 
f 10/17/10 21/34/22 22/35/23 
f 10/17/10 22/35/23 11/19/11 
s 4
f 11/21/12 22/36/12 23/37/12 
f 11/21/12 23/37/12 12/22/12 
s 8
f 12/24/13 23/38/13 13/39/13 
f 12/24/13 13/39/13 2/25/13 
s 1
f 13/26/14 24/40/24 25/41/25 
f 13/26/14 25/41/25 14/27/15 
f 14/27/15 25/41/25 26/42/26 
f 14/27/15 26/42/26 15/28/16 
f 15/28/16 26/42/26 27/43/27 
f 15/28/16 27/43/27 16/29/17 
f 16/29/17 27/43/27 28/44/28 
f 16/29/17 28/44/28 17/30/18 
f 17/30/18 28/44/28 29/45/29 
f 17/30/18 29/45/29 18/31/19 
f 18/31/19 29/45/29 30/46/30 
f 18/31/19 30/46/30 19/32/20 
f 19/32/20 30/46/30 31/47/31 
f 19/32/20 31/47/31 20/33/21 
f 20/33/21 31/47/31 32/48/32 
f 20/33/21 32/48/32 21/34/22 
f 21/34/22 32/48/32 33/49/33 
f 21/34/22 33/49/33 22/35/23 
s 4
f 22/36/12 33/50/12 34/51/12 
f 22/36/12 34/51/12 23/37/12 
s 8
f 23/38/13 34/50/13 24/51/13 
f 23/38/13 24/51/13 13/39/13 
s 2
f 34/52/34 25/53/34 24/54/34 
f 34/52/34 26/55/34 25/53/34 
f 34/52/34 27/56/34 26/55/34 
f 34/52/34 28/57/34 27/56/34 
f 34/52/34 29/58/34 28/57/34 
f 34/52/34 30/59/34 29/58/34 
f 34/52/34 31/60/34 30/59/34 
f 34/52/34 32/61/34 31/60/34 
f 34/52/34 33/50/34 32/61/34 
# 64 faces

#
# object Sphere057
#

v  0.055743 0.994967 0.944043
v  0.023604 0.983270 0.944043
v  0.024092 0.983270 0.949624
v  0.025542 0.983270 0.955035
v  0.027910 0.983270 0.960112
v  0.031123 0.983270 0.964701
v  0.035084 0.983270 0.968663
v  0.039674 0.983270 0.971876
v  0.044751 0.983270 0.974244
v  0.050162 0.983270 0.975694
v  0.055743 0.983270 0.976182
v  0.055743 0.983270 0.944043
v  0.006503 0.953650 0.944043
v  0.007251 0.953650 0.952593
v  0.009472 0.953650 0.960884
v  0.013100 0.953650 0.968663
v  0.018023 0.953650 0.975694
v  0.024092 0.953650 0.981763
v  0.031123 0.953650 0.986686
v  0.038902 0.953650 0.990314
v  0.047193 0.953650 0.992535
v  0.055743 0.953650 0.993283
v  0.055743 0.953650 0.944043
v  0.005743 0.944967 0.944043
v  0.006503 0.944967 0.952725
v  0.008759 0.944967 0.961144
v  0.012442 0.944967 0.969043
v  0.017441 0.944967 0.976182
v  0.023604 0.944967 0.982345
v  0.030743 0.944967 0.987344
v  0.038642 0.944967 0.991027
v  0.047061 0.944967 0.993283
v  0.055743 0.944967 0.994043
v  0.055743 0.944967 0.944043
# 34 vertices

vn -0.221203 0.949810 0.221202
vn -0.652603 0.755546 0.057095
vn -0.643738 0.756781 0.113508
vn -0.614248 0.756781 0.223568
vn -0.566094 0.756781 0.326834
vn -0.500740 0.756781 0.420170
vn -0.420170 0.756781 0.500739
vn -0.326835 0.756781 0.566093
vn -0.223568 0.756781 0.614247
vn -0.113509 0.756781 0.643737
vn -0.057096 0.755547 0.652602
vn 1.000000 0.000001 0.000000
vn 0.000000 -0.000000 -1.000000
vn -0.951466 0.296283 0.083242
vn -0.940274 0.297315 0.165796
vn -0.897199 0.297315 0.326554
vn -0.826863 0.297316 0.477390
vn -0.731403 0.297316 0.613720
vn -0.613720 0.297316 0.731403
vn -0.477390 0.297316 0.826863
vn -0.326554 0.297316 0.897199
vn -0.165796 0.297316 0.940274
vn -0.083243 0.296284 0.951465
vn -0.992433 0.086825 0.086827
vn -0.981060 0.087155 0.172987
vn -0.936117 0.087155 0.340719
vn -0.862730 0.087155 0.498097
vn -0.763129 0.087155 0.640342
vn -0.640342 0.087155 0.763129
vn -0.498097 0.087155 0.862730
vn -0.340719 0.087155 0.936117
vn -0.172988 0.087155 0.981060
vn -0.086827 0.086826 0.992433
vn 0.000001 -1.000000 0.000000
# 34 vertex normals

vt 0.000000 0.157080 0.000000
vt 0.000000 0.122173 0.000000
vt 0.008727 0.122173 0.000000
vt 0.008727 0.157080 0.000000
vt 0.017453 0.122173 0.000000
vt 0.017453 0.157080 0.000000
vt 0.026180 0.122173 0.000000
vt 0.026180 0.157080 0.000000
vt 0.034907 0.122173 0.000000
vt 0.034907 0.157080 0.000000
vt 0.043633 0.122173 0.000000
vt 0.043633 0.157080 0.000000
vt 0.052360 0.122173 0.000000
vt 0.052360 0.157080 0.000000
vt 0.061087 0.122173 0.000000
vt 0.061087 0.157080 0.000000
vt 0.069813 0.122173 0.000000
vt 0.069813 0.157080 0.000000
vt 0.078540 0.122173 0.000000
vt 0.050000 0.050000 -0.000000
vt 0.017861 0.038302 0.000000
vt 0.050000 0.038302 -0.000000
vt 0.000000 0.050000 -0.000000
vt 0.000000 0.038302 -0.000000
vt 0.032139 0.038302 -0.000000
vt 0.000000 0.087266 0.000000
vt 0.008727 0.087266 0.000000
vt 0.017453 0.087266 0.000000
vt 0.026180 0.087266 0.000000
vt 0.034907 0.087266 0.000000
vt 0.043633 0.087266 0.000000
vt 0.052360 0.087266 0.000000
vt 0.061087 0.087266 0.000000
vt 0.069813 0.087266 0.000000
vt 0.078540 0.087266 0.000000
vt 0.000760 0.008682 0.000000
vt 0.050000 0.008682 -0.000000
vt 0.000000 0.008682 -0.000000
vt 0.049240 0.008682 -0.000000
vt 0.000000 0.052360 0.000000
vt 0.008727 0.052360 0.000000
vt 0.017453 0.052360 0.000000
vt 0.026180 0.052360 0.000000
vt 0.034907 0.052360 0.000000
vt 0.043633 0.052360 0.000000
vt 0.052360 0.052360 0.000000
vt 0.061087 0.052360 0.000000
vt 0.069813 0.052360 0.000000
vt 0.078540 0.052360 0.000000
vt 0.000000 0.000000 0.000000
vt 0.050000 0.000000 0.000000
vt 0.000000 0.050000 0.000000
vt 0.049240 0.041318 0.000000
vt 0.050000 0.050000 0.000000
vt 0.046985 0.032899 0.000000
vt 0.043301 0.025000 0.000000
vt 0.038302 0.017861 0.000000
vt 0.032139 0.011698 0.000000
vt 0.025000 0.006699 0.000000
vt 0.017101 0.003015 0.000000
vt 0.008682 0.000760 0.000000
# 61 texture coords

g Sphere057
usemtl wire_153228153
s 1
f 35/62/35 36/63/36 37/64/37 
f 35/65/35 37/64/37 38/66/38 
f 35/67/35 38/66/38 39/68/39 
f 35/69/35 39/68/39 40/70/40 
f 35/71/35 40/70/40 41/72/41 
f 35/73/35 41/72/41 42/74/42 
f 35/75/35 42/74/42 43/76/43 
f 35/77/35 43/76/43 44/78/44 
f 35/79/35 44/78/44 45/80/45 
s 4
f 35/81/46 45/82/46 46/83/46 
s 8
f 35/84/47 46/85/47 36/86/47 
s 1
f 36/63/36 47/87/48 48/88/49 
f 36/63/36 48/88/49 37/64/37 
f 37/64/37 48/88/49 49/89/50 
f 37/64/37 49/89/50 38/66/38 
f 38/66/38 49/89/50 50/90/51 
f 38/66/38 50/90/51 39/68/39 
f 39/68/39 50/90/51 51/91/52 
f 39/68/39 51/91/52 40/70/40 
f 40/70/40 51/91/52 52/92/53 
f 40/70/40 52/92/53 41/72/41 
f 41/72/41 52/92/53 53/93/54 
f 41/72/41 53/93/54 42/74/42 
f 42/74/42 53/93/54 54/94/55 
f 42/74/42 54/94/55 43/76/43 
f 43/76/43 54/94/55 55/95/56 
f 43/76/43 55/95/56 44/78/44 
f 44/78/44 55/95/56 56/96/57 
f 44/78/44 56/96/57 45/80/45 
s 4
f 45/82/46 56/97/46 57/98/46 
f 45/82/46 57/98/46 46/83/46 
s 8
f 46/85/47 57/99/47 47/100/47 
f 46/85/47 47/100/47 36/86/47 
s 1
f 47/87/48 58/101/58 59/102/59 
f 47/87/48 59/102/59 48/88/49 
f 48/88/49 59/102/59 60/103/60 
f 48/88/49 60/103/60 49/89/50 
f 49/89/50 60/103/60 61/104/61 
f 49/89/50 61/104/61 50/90/51 
f 50/90/51 61/104/61 62/105/62 
f 50/90/51 62/105/62 51/91/52 
f 51/91/52 62/105/62 63/106/63 
f 51/91/52 63/106/63 52/92/53 
f 52/92/53 63/106/63 64/107/64 
f 52/92/53 64/107/64 53/93/54 
f 53/93/54 64/107/64 65/108/65 
f 53/93/54 65/108/65 54/94/55 
f 54/94/55 65/108/65 66/109/66 
f 54/94/55 66/109/66 55/95/56 
f 55/95/56 66/109/66 67/110/67 
f 55/95/56 67/110/67 56/96/57 
s 4
f 56/97/46 67/111/46 68/112/46 
f 56/97/46 68/112/46 57/98/46 
s 8
f 57/99/47 68/111/47 58/112/47 
f 57/99/47 58/112/47 47/100/47 
s 2
f 68/113/68 59/114/68 58/115/68 
f 68/113/68 60/116/68 59/114/68 
f 68/113/68 61/117/68 60/116/68 
f 68/113/68 62/118/68 61/117/68 
f 68/113/68 63/119/68 62/118/68 
f 68/113/68 64/120/68 63/119/68 
f 68/113/68 65/121/68 64/120/68 
f 68/113/68 66/122/68 65/121/68 
f 68/113/68 67/111/68 66/122/68 
# 64 faces

#
# object Sphere060
#

v  0.055743 0.994968 0.055836
v  0.055743 0.983270 0.023697
v  0.050162 0.983270 0.024185
v  0.044751 0.983270 0.025635
v  0.039674 0.983270 0.028002
v  0.035084 0.983270 0.031216
v  0.031123 0.983270 0.035177
v  0.027910 0.983270 0.039766
v  0.025542 0.983270 0.044844
v  0.024092 0.983270 0.050255
v  0.023604 0.983270 0.055836
v  0.055743 0.983270 0.055836
v  0.055743 0.953650 0.006596
v  0.047193 0.953650 0.007344
v  0.038902 0.953650 0.009565
v  0.031123 0.953650 0.013193
v  0.024092 0.953650 0.018116
v  0.018023 0.953650 0.024185
v  0.013100 0.953650 0.031216
v  0.009472 0.953650 0.038995
v  0.007251 0.953650 0.047285
v  0.006503 0.953650 0.055836
v  0.055743 0.953650 0.055836
v  0.055743 0.944968 0.005836
v  0.047061 0.944968 0.006596
v  0.038642 0.944968 0.008851
v  0.030743 0.944968 0.012535
v  0.023604 0.944968 0.017534
v  0.017441 0.944968 0.023697
v  0.012442 0.944968 0.030836
v  0.008759 0.944968 0.038735
v  0.006503 0.944968 0.047154
v  0.005743 0.944968 0.055836
v  0.055743 0.944968 0.055836
# 34 vertices

vn -0.221203 0.949810 -0.221202
vn -0.057096 0.755547 -0.652602
vn -0.113509 0.756781 -0.643737
vn -0.223568 0.756781 -0.614247
vn -0.326834 0.756781 -0.566093
vn -0.420170 0.756781 -0.500739
vn -0.500739 0.756781 -0.420170
vn -0.566093 0.756781 -0.326834
vn -0.614247 0.756781 -0.223568
vn -0.643738 0.756781 -0.113508
vn -0.652602 0.755547 -0.057095
vn 0.000000 0.000000 1.000000
vn 1.000000 0.000000 -0.000000
vn -0.083243 0.296284 -0.951465
vn -0.165796 0.297316 -0.940274
vn -0.326554 0.297316 -0.897199
vn -0.477390 0.297316 -0.826863
vn -0.613720 0.297316 -0.731403
vn -0.731403 0.297316 -0.613720
vn -0.826863 0.297316 -0.477389
vn -0.897199 0.297316 -0.326553
vn -0.940274 0.297316 -0.165796
vn -0.951465 0.296284 -0.083242
vn -0.086827 0.086826 -0.992433
vn -0.172988 0.087155 -0.981060
vn -0.340719 0.087155 -0.936117
vn -0.498097 0.087155 -0.862730
vn -0.640342 0.087156 -0.763129
vn -0.763129 0.087155 -0.640342
vn -0.862730 0.087155 -0.498097
vn -0.936117 0.087155 -0.340718
vn -0.981060 0.087155 -0.172987
vn -0.992433 0.086826 -0.086826
vn 0.000000 -1.000000 0.000000
# 34 vertex normals

vt 0.000000 0.157080 0.000000
vt 0.000000 0.122173 0.000000
vt 0.008727 0.122173 0.000000
vt 0.008727 0.157080 0.000000
vt 0.017453 0.122173 0.000000
vt 0.017453 0.157080 0.000000
vt 0.026180 0.122173 0.000000
vt 0.026180 0.157080 0.000000
vt 0.034907 0.122173 0.000000
vt 0.034907 0.157080 0.000000
vt 0.043633 0.122173 0.000000
vt 0.043633 0.157080 0.000000
vt 0.052360 0.122173 0.000000
vt 0.052360 0.157080 0.000000
vt 0.061087 0.122173 0.000000
vt 0.061087 0.157080 0.000000
vt 0.069813 0.122173 0.000000
vt 0.069813 0.157080 0.000000
vt 0.078540 0.122173 0.000000
vt 0.050000 0.050000 -0.000000
vt 0.017861 0.038302 0.000000
vt 0.050000 0.038302 -0.000000
vt 0.000000 0.050000 -0.000000
vt 0.000000 0.038302 -0.000000
vt 0.032139 0.038302 -0.000000
vt 0.000000 0.087266 0.000000
vt 0.008727 0.087266 0.000000
vt 0.017453 0.087266 0.000000
vt 0.026180 0.087266 0.000000
vt 0.034907 0.087266 0.000000
vt 0.043633 0.087266 0.000000
vt 0.052360 0.087266 0.000000
vt 0.061087 0.087266 0.000000
vt 0.069813 0.087266 0.000000
vt 0.078540 0.087266 0.000000
vt 0.000760 0.008682 0.000000
vt 0.050000 0.008682 -0.000000
vt 0.000000 0.008682 -0.000000
vt 0.049240 0.008682 -0.000000
vt 0.000000 0.052360 0.000000
vt 0.008727 0.052360 0.000000
vt 0.017453 0.052360 0.000000
vt 0.026180 0.052360 0.000000
vt 0.034907 0.052360 0.000000
vt 0.043633 0.052360 0.000000
vt 0.052360 0.052360 0.000000
vt 0.061087 0.052360 0.000000
vt 0.069813 0.052360 0.000000
vt 0.078540 0.052360 0.000000
vt 0.000000 0.000000 0.000000
vt 0.050000 0.000000 0.000000
vt 0.000000 0.050000 0.000000
vt 0.049240 0.041318 0.000000
vt 0.050000 0.050000 0.000000
vt 0.046985 0.032899 0.000000
vt 0.043301 0.025000 0.000000
vt 0.038302 0.017861 0.000000
vt 0.032139 0.011698 0.000000
vt 0.025000 0.006699 0.000000
vt 0.017101 0.003015 0.000000
vt 0.008682 0.000760 0.000000
# 61 texture coords

g Sphere060
usemtl wire_153228153
s 1
f 69/123/69 70/124/70 71/125/71 
f 69/126/69 71/125/71 72/127/72 
f 69/128/69 72/127/72 73/129/73 
f 69/130/69 73/129/73 74/131/74 
f 69/132/69 74/131/74 75/133/75 
f 69/134/69 75/133/75 76/135/76 
f 69/136/69 76/135/76 77/137/77 
f 69/138/69 77/137/77 78/139/78 
f 69/140/69 78/139/78 79/141/79 
s 4
f 69/142/80 79/143/80 80/144/80 
s 8
f 69/145/81 80/146/81 70/147/81 
s 1
f 70/124/70 81/148/82 82/149/83 
f 70/124/70 82/149/83 71/125/71 
f 71/125/71 82/149/83 83/150/84 
f 71/125/71 83/150/84 72/127/72 
f 72/127/72 83/150/84 84/151/85 
f 72/127/72 84/151/85 73/129/73 
f 73/129/73 84/151/85 85/152/86 
f 73/129/73 85/152/86 74/131/74 
f 74/131/74 85/152/86 86/153/87 
f 74/131/74 86/153/87 75/133/75 
f 75/133/75 86/153/87 87/154/88 
f 75/133/75 87/154/88 76/135/76 
f 76/135/76 87/154/88 88/155/89 
f 76/135/76 88/155/89 77/137/77 
f 77/137/77 88/155/89 89/156/90 
f 77/137/77 89/156/90 78/139/78 
f 78/139/78 89/156/90 90/157/91 
f 78/139/78 90/157/91 79/141/79 
s 4
f 79/143/80 90/158/80 91/159/80 
f 79/143/80 91/159/80 80/144/80 
s 8
f 80/146/81 91/160/81 81/161/81 
f 80/146/81 81/161/81 70/147/81 
s 1
f 81/148/82 92/162/92 93/163/93 
f 81/148/82 93/163/93 82/149/83 
f 82/149/83 93/163/93 94/164/94 
f 82/149/83 94/164/94 83/150/84 
f 83/150/84 94/164/94 95/165/95 
f 83/150/84 95/165/95 84/151/85 
f 84/151/85 95/165/95 96/166/96 
f 84/151/85 96/166/96 85/152/86 
f 85/152/86 96/166/96 97/167/97 
f 85/152/86 97/167/97 86/153/87 
f 86/153/87 97/167/97 98/168/98 
f 86/153/87 98/168/98 87/154/88 
f 87/154/88 98/168/98 99/169/99 
f 87/154/88 99/169/99 88/155/89 
f 88/155/89 99/169/99 100/170/100 
f 88/155/89 100/170/100 89/156/90 
f 89/156/90 100/170/100 101/171/101 
f 89/156/90 101/171/101 90/157/91 
s 4
f 90/158/80 101/172/80 102/173/80 
f 90/158/80 102/173/80 91/159/80 
s 8
f 91/160/81 102/172/81 92/173/81 
f 91/160/81 92/173/81 81/161/81 
s 2
f 102/174/102 93/175/102 92/176/102 
f 102/174/102 94/177/102 93/175/102 
f 102/174/102 95/178/102 94/177/102 
f 102/174/102 96/179/102 95/178/102 
f 102/174/102 97/180/102 96/179/102 
f 102/174/102 98/181/102 97/180/102 
f 102/174/102 99/182/102 98/181/102 
f 102/174/102 100/183/102 99/182/102 
f 102/174/102 101/172/102 100/183/102 
# 64 faces

#
# object Sphere059
#

v  0.993395 0.944967 0.055345
v  0.981697 0.944967 0.023205
v  0.981697 0.950548 0.023694
v  0.981697 0.955960 0.025144
v  0.981697 0.961037 0.027511
v  0.981697 0.965626 0.030725
v  0.981697 0.969588 0.034686
v  0.981697 0.972801 0.039275
v  0.981697 0.975169 0.044353
v  0.981697 0.976619 0.049764
v  0.981697 0.977107 0.055345
v  0.981697 0.944967 0.055345
v  0.952077 0.944967 0.006104
v  0.952077 0.953518 0.006853
v  0.952077 0.961809 0.009074
v  0.952077 0.969588 0.012701
v  0.952077 0.976619 0.017625
v  0.952077 0.982688 0.023694
v  0.952077 0.987611 0.030725
v  0.952077 0.991238 0.038504
v  0.952077 0.993460 0.046794
v  0.952077 0.994208 0.055345
v  0.952077 0.944967 0.055345
v  0.943395 0.944967 0.005345
v  0.943395 0.953650 0.006104
v  0.943395 0.962068 0.008360
v  0.943395 0.969967 0.012044
v  0.943395 0.977107 0.017043
v  0.943395 0.983270 0.023205
v  0.943395 0.988269 0.030345
v  0.943395 0.991952 0.038244
v  0.943395 0.994208 0.046662
v  0.943395 0.994967 0.055345
v  0.943395 0.944967 0.055345
# 34 vertices

vn 0.949810 0.221202 -0.221202
vn 0.755547 0.057095 -0.652602
vn 0.756781 0.113508 -0.643737
vn 0.756781 0.223568 -0.614247
vn 0.756781 0.326834 -0.566093
vn 0.756781 0.420170 -0.500739
vn 0.756781 0.500739 -0.420170
vn 0.756781 0.566093 -0.326834
vn 0.756781 0.614247 -0.223568
vn 0.756781 0.643738 -0.113508
vn 0.755547 0.652602 -0.057095
vn -0.000000 0.000000 1.000000
vn 0.000000 -1.000000 0.000000
vn 0.296284 0.083242 -0.951465
vn 0.297316 0.165796 -0.940274
vn 0.297316 0.326554 -0.897199
vn 0.297316 0.477390 -0.826863
vn 0.297316 0.613720 -0.731403
vn 0.297316 0.731403 -0.613720
vn 0.297316 0.826863 -0.477389
vn 0.297316 0.897199 -0.326554
vn 0.297316 0.940274 -0.165796
vn 0.296284 0.951465 -0.083242
vn 0.086826 0.086827 -0.992433
vn 0.087155 0.172987 -0.981060
vn 0.087155 0.340719 -0.936117
vn 0.087155 0.498097 -0.862730
vn 0.087156 0.640342 -0.763129
vn 0.087155 0.763129 -0.640342
vn 0.087155 0.862730 -0.498097
vn 0.087155 0.936117 -0.340719
vn 0.087155 0.981060 -0.172987
vn 0.086826 0.992433 -0.086827
vn -1.000000 0.000000 -0.000000
# 34 vertex normals

vt 0.000000 0.157080 0.000000
vt 0.000000 0.122173 0.000000
vt 0.008727 0.122173 0.000000
vt 0.008727 0.157080 0.000000
vt 0.017453 0.122173 0.000000
vt 0.017453 0.157080 0.000000
vt 0.026180 0.122173 0.000000
vt 0.026180 0.157080 0.000000
vt 0.034907 0.122173 0.000000
vt 0.034907 0.157080 0.000000
vt 0.043633 0.122173 0.000000
vt 0.043633 0.157080 0.000000
vt 0.052360 0.122173 0.000000
vt 0.052360 0.157080 0.000000
vt 0.061087 0.122173 0.000000
vt 0.061087 0.157080 0.000000
vt 0.069813 0.122173 0.000000
vt 0.069813 0.157080 0.000000
vt 0.078540 0.122173 0.000000
vt 0.050000 0.050000 -0.000000
vt 0.017861 0.038302 0.000000
vt 0.050000 0.038302 -0.000000
vt 0.000000 0.050000 -0.000000
vt 0.000000 0.038302 -0.000000
vt 0.032139 0.038302 -0.000000
vt 0.000000 0.087266 0.000000
vt 0.008727 0.087266 0.000000
vt 0.017453 0.087266 0.000000
vt 0.026180 0.087266 0.000000
vt 0.034907 0.087266 0.000000
vt 0.043633 0.087266 0.000000
vt 0.052360 0.087266 0.000000
vt 0.061087 0.087266 0.000000
vt 0.069813 0.087266 0.000000
vt 0.078540 0.087266 0.000000
vt 0.000760 0.008682 0.000000
vt 0.050000 0.008682 -0.000000
vt 0.000000 0.008682 -0.000000
vt 0.049240 0.008682 -0.000000
vt 0.000000 0.052360 0.000000
vt 0.008727 0.052360 0.000000
vt 0.017453 0.052360 0.000000
vt 0.026180 0.052360 0.000000
vt 0.034907 0.052360 0.000000
vt 0.043633 0.052360 0.000000
vt 0.052360 0.052360 0.000000
vt 0.061087 0.052360 0.000000
vt 0.069813 0.052360 0.000000
vt 0.078540 0.052360 0.000000
vt 0.000000 0.000000 0.000000
vt 0.050000 0.000000 0.000000
vt 0.000000 0.050000 0.000000
vt 0.049240 0.041318 0.000000
vt 0.050000 0.050000 0.000000
vt 0.046985 0.032899 0.000000
vt 0.043301 0.025000 0.000000
vt 0.038302 0.017861 0.000000
vt 0.032139 0.011698 0.000000
vt 0.025000 0.006699 0.000000
vt 0.017101 0.003015 0.000000
vt 0.008682 0.000760 0.000000
# 61 texture coords

g Sphere059
usemtl wire_153228153
s 1
f 103/184/103 104/185/104 105/186/105 
f 103/187/103 105/186/105 106/188/106 
f 103/189/103 106/188/106 107/190/107 
f 103/191/103 107/190/107 108/192/108 
f 103/193/103 108/192/108 109/194/109 
f 103/195/103 109/194/109 110/196/110 
f 103/197/103 110/196/110 111/198/111 
f 103/199/103 111/198/111 112/200/112 
f 103/201/103 112/200/112 113/202/113 
s 4
f 103/203/114 113/204/114 114/205/114 
s 8
f 103/206/115 114/207/115 104/208/115 
s 1
f 104/185/104 115/209/116 116/210/117 
f 104/185/104 116/210/117 105/186/105 
f 105/186/105 116/210/117 117/211/118 
f 105/186/105 117/211/118 106/188/106 
f 106/188/106 117/211/118 118/212/119 
f 106/188/106 118/212/119 107/190/107 
f 107/190/107 118/212/119 119/213/120 
f 107/190/107 119/213/120 108/192/108 
f 108/192/108 119/213/120 120/214/121 
f 108/192/108 120/214/121 109/194/109 
f 109/194/109 120/214/121 121/215/122 
f 109/194/109 121/215/122 110/196/110 
f 110/196/110 121/215/122 122/216/123 
f 110/196/110 122/216/123 111/198/111 
f 111/198/111 122/216/123 123/217/124 
f 111/198/111 123/217/124 112/200/112 
f 112/200/112 123/217/124 124/218/125 
f 112/200/112 124/218/125 113/202/113 
s 4
f 113/204/114 124/219/114 125/220/114 
f 113/204/114 125/220/114 114/205/114 
s 8
f 114/207/115 125/221/115 115/222/115 
f 114/207/115 115/222/115 104/208/115 
s 1
f 115/209/116 126/223/126 127/224/127 
f 115/209/116 127/224/127 116/210/117 
f 116/210/117 127/224/127 128/225/128 
f 116/210/117 128/225/128 117/211/118 
f 117/211/118 128/225/128 129/226/129 
f 117/211/118 129/226/129 118/212/119 
f 118/212/119 129/226/129 130/227/130 
f 118/212/119 130/227/130 119/213/120 
f 119/213/120 130/227/130 131/228/131 
f 119/213/120 131/228/131 120/214/121 
f 120/214/121 131/228/131 132/229/132 
f 120/214/121 132/229/132 121/215/122 
f 121/215/122 132/229/132 133/230/133 
f 121/215/122 133/230/133 122/216/123 
f 122/216/123 133/230/133 134/231/134 
f 122/216/123 134/231/134 123/217/124 
f 123/217/124 134/231/134 135/232/135 
f 123/217/124 135/232/135 124/218/125 
s 4
f 124/219/114 135/233/114 136/234/114 
f 124/219/114 136/234/114 125/220/114 
s 8
f 125/221/115 136/233/115 126/234/115 
f 125/221/115 126/234/115 115/222/115 
s 2
f 136/235/136 127/236/136 126/237/136 
f 136/235/136 128/238/136 127/236/136 
f 136/235/136 129/239/136 128/238/136 
f 136/235/136 130/240/136 129/239/136 
f 136/235/136 131/241/136 130/240/136 
f 136/235/136 132/242/136 131/241/136 
f 136/235/136 133/243/136 132/242/136 
f 136/235/136 134/244/136 133/243/136 
f 136/235/136 135/233/136 134/244/136 
# 64 faces

